<svg width="60" height="56" xmlns="http://www.w3.org/2000/svg"><g fill="none" fill-rule="evenodd"><path d="M30.053 2.995C15.532 2.995 3.76 14.83 3.76 29.432S15.533 55.87 30.054 55.87c14.522 0 26.294-11.836 26.294-26.438 0-14.6-11.772-26.437-26.294-26.437" fill="#3B302F"/><path d="M30.053 53.783c-13.353 0-24.217-10.924-24.217-24.35 0-13.427 10.864-24.35 24.217-24.35 13.354 0 24.218 10.923 24.218 24.35 0 13.426-10.864 24.35-24.218 24.35" fill="#FFFFFE"/><path d="M42.53 29.483c-.486.451-.806.35-.954.25-.151.849-.366 2.395-.732 3.695-.668 2.377-1.408 3.385-2.213 4.33-.618.729-1.138 1.208-2.16 2.167-.888.836-1.55 1.421-2.828 2.164-.594.345-1.588 1.064-3.415 1.085-1.941.024-3.357-.966-4.128-1.455-.869-.55-1.211-.83-1.983-1.452-.576-.465-1.481-1.219-1.92-1.682-.749-.788-1.538-1.68-2.158-2.802-.62-1.075-.954-1.897-1.357-3.675-.088-.389-.328-1.624-.489-2.369v-.003c-.216.186-.634.084-.953-.25-.51-.534-1.076-1.837-1.033-2.97.038-.984.257-2.066.832-2.2.43-.1.622.116.806.539.098.227.191.857.191.857s.158-2.082 1.479-3.069c1.57-1.174 8.236-1.86 12.685-7.408-.448 2.585-1.67 4.887-4.08 7.2 4.28.551 8.918-5.735 9.121-7.045.644 3.003 4.52 6.744 4.683 9.462.2-.416.377-.638.806-.538.575.133.812 1.214.832 2.198.022 1.122-.493 2.469-1.033 2.97" fill="#EFD1CF"/><path d="M37.319 40.683c-2.685 2.295-4.995 3.739-7.182 3.765-2.15.025-4.394-1.406-7.358-3.864-.024 1.186-.033 2.363-.057 3.969.128.21.293.46.52.776.39.545.952-1.296 1.63-.911.726.413.689 1.702 1.466 2.315.46.363 1.319-1.702 1.771-.572.488 1.222 1.363 1.502 2.312 1.988.423-.375 1.043-.427 1.562-1.042.486-.577.777-1.166 1.136-1.278.555-.173.882 1.203 1.482.984.978-.36.806-2.172 1.713-2.417.46-.125.534.67 1.077.752.195.03.385-.198.563-.537l-.02-1.197c-.186.368-.414-.196-.615-2.73" fill="#EFD1CF"/><path d="M29.862 49.294c.247-.1.731-.143 1.035.062.293.198.442.338.58.595.143.264.272.65.181 1.074-.126.588-.894 1.04-1.715.83-1.377-.353-.888-2.229-.08-2.56m-6.647-2.618c-.596-.098-.807-.415-1-.808-.095.364-.22.773-.57 1.552-.474 1.057-1.864 2.166-.448 2.587.455.113.73-.067.916-.234.781-.71 1.5-2.25 1.879-3.319-.22.152-.489.27-.777.222m2.848 1.408c-.259-.046-.559-.314-.832-.679-.496 2.389-1.381 3.092-1.074 3.767.106.227.347.418.347.418a.95.95 0 00.465.156c.232-.001.474-.056.656-.27.782-.962 1.345-2.616 1.501-3.677-.253.189-.621.364-1.063.285m8.686.111c-.5.002-.839-.256-1.083-.475.421 1.865 1.107 3.18 1.51 3.692.18.211.423.345.698.393a.854.854 0 00.47-.098s.343-.159.428-.393c.228-.637-.655-1.636-1.101-3.68-.255.32-.564.56-.922.561m3.587-2.356c-.229.327-.533.699-.767.762-.36.098-.71-.219-.907-.448.449 2.127 1.453 3.238 1.723 3.522.297.31.528.34.787.36a.826.826 0 00.74-.292c.442-.657-.665-1.682-1.202-2.925-.16-.373-.29-.68-.374-.979m12.989-10.12c.724-.805 1.929-1.831 1.145-2.619-.407-.408-1.095-.785-1.829-1.142-.744-.362-1.504-.626-1.938-.655-1.04-.07-2.052 3.943-2.04 4.472.033.563.226.623.172.71-.064.102-1.13-.115-1.827 1.129-.47.839-.675 1.842-.193 2.155.49.317-.542.613-1.333 1.348-.95.884-1.72 2.198-1.77 2.365-.143.45-.188.785.994 1.654.933.686 2.65 1.098 2.95 1.143.93.141 1.305-.334 1.494-1.236.219-1.049.345-1.673.45-2.158.412-1.882-.183-1.637-.135-1.914.034-.2.726.208 1.48-.992.143-.22.78-1.365.412-1.69-.3-.265-.114-.377.054-.56.46-.502.928-.914 1.914-2.01m-33.532 7.13c-.317-.365-2.365-2.383-2.49-2.508-.35-.348-.155-.438-.016-.678.219-.377-.538-2.403-1.47-2.499-.73-.075-.094-.174-.09-.606 0-.283-.405-2.386-.744-3.643-.4-1.485-1.302-1.55-1.656-1.525-.277.022-1.697.397-2.652 1.195-.996.76-1.012 1.318-.886 1.713.1.315.58 1.192.952 1.665 1.058 1.307 2.644 1.635 1.984 2.099-.192.21-.14.57.085 1.382.182.502.359.945.538 1.23.585 1.088 1.246.674 1.33.84.05.104-.132.222-.126.72.004.246.36.948.618 1.818.362 1.22.885 2.437 1.633 2.462 1.532.051 3.452-1.225 3.644-1.97.207-.809-.325-1.319-.654-1.696" fill="#2390C1"/><path d="M46.785 35.043c-.42-.624-1.087-1.21-2.245-1.568 8.091-9.283.943-20.733.117-22.833-1.715-4.358-4-9.925-9.612-8.155-.894-3.255-10.421-2.86-14.649.625-4.19 3.455-6.546 8.113-7.628 15.797-.867 2.037-2.91 8.276 2.784 14.712-.915.195-1.57.94-2.02 1.733.117.603.196 1.08.196 1.205-.004.432-.64.531.09.606.932.096 1.689 2.122 1.47 2.499-.14.24-.335.33.016.678l.92.912c2.043-.176 3.826-.704 5.066-2.227-.385-.493-1.47-2.203-1.683-2.601-.202-.38-.39-.818-.663-1.591-.224-.64-.464-1.598-.596-2.794-.14-1.226-.12-1.519-.156-2.305-.215.186-.634.085-.953-.25-.509-.534-1.076-1.837-1.032-2.97.037-.984.256-2.066.831-2.2.43-.1.622.116.806.539.098.227.191.857.191.857s.158-2.082 1.478-3.069c1.572-1.174 8.237-1.86 12.686-7.408-.448 2.585-1.67 4.887-4.08 7.2 4.28.551 8.917-5.735 9.121-7.045.644 3.003 4.52 6.744 4.684 9.462.198-.416.376-.638.805-.538.575.133.812 1.214.832 2.198.022 1.122-.493 2.469-1.033 2.97-.485.452-.805.35-.953.251.02.302.086.672-.007 1.844-.088.85-.175 1.626-.36 2.405-.267 1.134-.512 1.893-.96 2.718-.41.757-.554.903-1.126 1.746 1.172 2.283 2.679 2.72 4.29 2.741l.071-.069c.791-.735 1.823-1.03 1.333-1.348-.482-.313-.276-1.316.193-2.155.696-1.244 1.763-1.027 1.827-1.13.054-.086-.14-.146-.172-.71-.002-.111.042-.38.121-.732zM11.35 40.674c-.179-.284-.356-.727-.538-1.23-.226-.81-.277-1.17-.085-1.381.126-.09.169-.174.15-.26-5.856.424-7.33-2.513-8.206-3.426-.459-.389-.328 1.797 1.001 3.353-1.466.047-2.234-.73-2.818-1.468-.652-.734-1.185 1.94.17 3.742.997 1.325 2.212 1.54 2.212 1.54-.811.244-1.556-.174-1.765-.29-.434-.24.25 1.908 4.247 2.535 1.693.266 3.769-.12 5.7-1.685a4.802 4.802 0 011.02-.639c-.264-.006-.693-.056-1.088-.79zm47.576.597c.224.435-1.98 2.918-6.112 2.512-3.275-.32-4.421-2.358-4.884-2.489a4.924 4.924 0 00-.324-.079c-.079-.105-.157-.135-.139-.243.034-.2.726.208 1.48-.992.143-.22.78-1.365.412-1.69-.252-.222-.16-.337-.025-.476 1.082.133 2.574.085 4.095-.364 2.641-.78 3.914-2.882 4.129-3.064.476-.404.33 1.78-.999 3.336 2.055.105 2.695-1.588 3.063-1.588.445 0 1.166 4.157-2.604 5.391.72.413 1.782-.5 1.908-.254z" fill="#BB252D"/><path d="M20.573 30.068c0-.161.106-.283.3-.283.158.003.371.123.368.288.007.208-.213.344-.377.338-.191 0-.295-.136-.29-.343m1.484 1.002c0-.17.164-.35.34-.344.18-.01.371.171.371.346-.002.15-.197.283-.379.283-.166.012-.334-.137-.332-.285m1.255-1.858c0-.136.206-.303.4-.302.125.003.325.164.321.311-.07.242-.19.345-.322.344-.255-.004-.403-.105-.399-.353m1.52 1.3c.005-.177.087-.33.298-.33a.317.317 0 01.305.321c0 .184-.137.36-.311.339-.21 0-.292-.165-.292-.33m1.481-1.592c.001-.175.114-.312.313-.312.202.006.322.138.318.305 0 .172-.12.316-.328.315-.196.001-.305-.148-.303-.308m7.008.086c.03-.184.125-.288.325-.251.17.037.276.178.267.373-.035.166-.193.228-.38.19-.183-.034-.237-.186-.212-.312m2 .371c.03-.148.153-.275.294-.25a.301.301 0 01.243.354c-.03.173-.177.29-.35.257-.148-.03-.219-.187-.187-.361m2.661-.248c.037-.18.175-.269.419-.223.187.034.265.165.23.347-.037.195-.156.348-.35.313-.245-.046-.335-.243-.3-.437m-1.544 1.456c.039-.207.21-.299.435-.263.175.038.284.21.248.39-.032.168-.198.301-.363.267-.237-.043-.352-.225-.32-.394m2.085.147c.04-.2.207-.286.406-.245.185.025.32.178.278.368a.346.346 0 01-.39.27c-.204-.038-.332-.21-.294-.393" fill="#BB252D"/><path d="M29.455 11.245c-2.387.235-8.985 5.942-11.86 6.84 4.947 1.263 9.035-5.213 11.86-6.84zm16.225 14.84c-.659-4.07-4.47-5.558-6.19-8.635-1.734-3.1-1.578-6.205-3.518-6.55 0 0-.621 8.163-7.851 11.533l-.002.003c4.28.55 8.917-5.736 9.121-7.046.644 3.003 4.52 6.744 4.684 9.462.199-.416.376-.638.805-.538.575.133.812 1.214.832 2.198.022 1.122-.493 2.469-1.032 2.97-.486.452-.806.35-.954.251.02.302.086.672-.007 1.844-.088.85-.175 1.626-.36 2.405-.267 1.134-.512 1.893-.96 2.718-.41.757-.554.903-1.126 1.746 1.172 2.283 2.679 2.72 4.29 2.741l.072-.069c.79-.735 1.823-1.03 1.332-1.348-.482-.313-.276-1.316.193-2.155.025-.044.05-.082.076-.122-1.069-.016-1.992-.148-2.208-1.272-.461-2.396 3.657-4.85 2.803-10.135zm7.051 15.976c-1.525-.496-2.597-1.675-3.467-2.69-.12.278-.26.52-.318.609-.753 1.2-1.445.792-1.48.992-.018.108.06.138.14.243.107.023.215.049.323.08.463.13 1.61 2.167 4.884 2.488 3.361.33 5.446-1.25 5.987-2.086-.344.264-2.319 1.583-6.069.364zm-4.707-15.462c.527-2.504.379-4.968-.073-7.192-1.481-4.564-5.793-6.67-8.16-11.825.29 8.094 8.99 10.531 8.233 19.017zm-29.08 8.236c-.223-.64-.464-1.598-.596-2.794-.14-1.226-.119-1.519-.156-2.305-.215.186-.634.085-.953-.25-.509-.534-1.076-1.837-1.032-2.97.037-.984.256-2.066.832-2.2.428-.1.621.116.805.539.098.227.191.857.191.857s.158-2.082 1.478-3.069c.122-.09.277-.178.455-.265 2.135-1.043 8.121-2.023 12.226-7.137l.017-.036c1.535-2.13 1.365-3.82.972-4.227 0 0-1.65 2.81-3.676 4.647-4.38 3.973-13.725 4.86-15.78 8.435-1.049-5.992 2.49-9.463 2.49-9.463-.354-.122-2.137 2.023-2.929 3.257C16.676-1.088 33.634 1.104 34.658 4.88c5.903-3.846 9.39 6.802 11.402 8.793l.002-.025c-.635-1.44-1.205-2.498-1.405-3.006-1.715-4.358-4-9.925-9.612-8.155-.893-3.255-10.421-2.86-14.649.625-4.19 3.455-6.546 8.113-7.628 15.797-.867 2.037-2.91 8.276 2.784 14.712 0 0 1.466 1.65 1.288 3.04-.115.9-.889 1.091-2.026 1.341.39.637.604 1.438.474 1.662-.14.24-.335.33.016.678l.92.912c2.043-.176 3.827-.704 5.066-2.227-.385-.493-1.47-2.203-1.683-2.601-.202-.38-.39-.818-.663-1.591zm-6.508 6.63a4.84 4.84 0 00-1.02.639c-1.93 1.565-4.006 1.95-5.7 1.685-2.549-.4-3.749-1.418-4.172-2.041.448.308 1.826 1.093 3.885.798 3.58-.513 4.348-1.9 5.451-2.916.159.423.313.796.469 1.044.395.735.824.785 1.087.791z" fill="#912637"/><path d="M26.51 36.646c.74.403 1.64.983 2.7 1.055 1.05.074 2.385.072 3.115-.286.682-.335 1.07-1.029 1.546-1.472-1.382.397-2.749.009-4.243.15-.153.012-.74.07-.89.076-.948.064-1.758-.132-2.71-.14.183.147.352.39.482.617M24.953 25.8c-.067.36-.082.78-.327.955-.575-.048-1.147-.055-1.385.249-.053.051-.204-.009-.33-.164a.766.766 0 01.088-.98c.188-.082.371.136.624.08.165-.035.233-.181.243-.373-.13-.245-.471-.415-.911-.1-.484.257-.893.903-.929 1.303-.006.121.201.384.492.394.06.001.14.035.18.1.686.025 2.578-.062 3.114-.66-.259-.397-.464-1.255-.86-.803m12.183 1.384c-.002-.328.366-.293.518-.47.192-.334-.015-.982-.47-1 0 .215.008.715-.267.99-.274.271-.801-.082-1.337-.074-.333.005-.413.263-.751.125.033-.516.261-.932.414-.965.153-.033.457.086.779.06.125-.065.292-.382.124-.529-.29-.227-.627-.125-.857.008-.249.142-.715.621-.94.933a2.01 2.01 0 00-.146.247c.316.458 1.107.785 2.04.782.31-.001.624-.04.893-.107m11.036 10.377c-.373-.32-.749-.663-1.131-.651-.384.014-.53.072-.608.39-.077.316.15.223.507.274.358.05.746.306.93.45.201.165.587.285.69.111.1-.172-.04-.272-.388-.574m-35.451-.136c-.44.046-.967.082-1.196.377-.227.293-.261.37-.1.655.159.288.237.05.49-.181.257-.231.566-.361.776-.393.23-.034.514-.156.595-.41.062-.196-.154-.091-.566-.048" fill="#FFFFFE"/><path d="M29.862 49.294c.247-.1.731-.143 1.035.062.292.198.442.338.58.595.143.264.272.65.181 1.074-.126.588-.894 1.04-1.715.83-1.377-.353-.888-2.229-.08-2.56zm.275-4.846c2.187-.026 4.497-1.47 7.182-3.765.422 5.328.966 1.957.984-.5.022-.585.044-.615.584-1.388.776-1.168.9-1.244 1.36-2.095.449-.825.693-1.584.96-2.718.185-.779.273-1.556.36-2.405.094-1.172.028-1.542.007-1.844-.15.849-.365 2.395-.73 3.695-.67 2.377-1.41 3.385-2.214 4.33-.618.729-1.139 1.208-2.16 2.167-.888.836-1.55 1.421-2.828 2.164-.594.345-1.588 1.064-3.415 1.085-1.941.024-3.357-.966-4.128-1.455-.869-.55-1.212-.83-1.983-1.452-.576-.465-1.482-1.219-1.92-1.682-.749-.788-1.538-1.68-2.159-2.802-.62-1.075-.954-1.897-1.355-3.675-.089-.39-.33-1.628-.49-2.372.037.786.015 1.079.156 2.305.131 1.196.372 2.153.596 2.794.273.773.46 1.212.663 1.59.221.415 1.387 2.251 1.727 2.659.327.378.457.909.454 1.19-.005.641-.07 2.45-.07 2.45-.543-.573-1.363-1.032-1.272-.199a7.917 7.917 0 01-.27 3.118c-.278.958-1.176 2.03-1.713 2.248.602.404 1.976-.662 2.451-1.62.259-.518.372-.989.426-1.328.069-.42.402.068.502.217.452.675.441 1.364 1.374 1.517.699.116 1.291-.739 1.304-.698.262.925.997 2.009 1.544 2.106.858.154 1.441-.652 1.441-.652.4.587.946 1.057 1.632 1.24-.741.533-1.506 1.666-1.142 2.907.33.975 1.58 1.412 2.613 1.342 1.431-.107 2.646-1.148 2.29-2.793v-.002c-.188-.693-.618-1.087-1.115-1.47.93-.34 1.158-.817 1.341-1.137.245-.43.592.68 1.626.676 1.104-.005 1.748-2.256 1.748-2.256s.523.81 1.072.662c.43-.115 1.096-1.273 1.096-1.273.357-.652.223-.64.706.62.774 2.027 2.749 2.546 1.972 1.61-.776-.936-1.417-2.279-1.478-3.678-.04-.999-.066-1.577-.494-1.74-.303-.116-.502-.003-.643.39-.278.792-.796 2.701-1.338 2.617-.543-.082-.617-.877-1.077-.752-.907.245-.735 2.057-1.713 2.417-.6.22-.927-1.157-1.482-.984-.359.112-.65.701-1.136 1.278-.519.615-1.139.667-1.562 1.042-.949-.486-1.824-.766-2.312-1.988-.452-1.13-1.31.935-1.771.572-.777-.613-.74-1.902-1.466-2.315-.678-.385-1.24 1.456-1.63.91a12.405 12.405 0 01-.52-.775c.024-1.606.033-2.783.057-3.969 2.964 2.458 5.209 3.889 7.358 3.864z" fill="#3B302F"/><path d="M28.738 36.17c.15-.008.737-.065.89-.078 1.494-.14 2.86.248 4.243-.15-.477.444-.864 1.138-1.546 1.473-.73.358-2.065.36-3.114.286-1.061-.072-1.96-.652-2.701-1.055-.201.603.154.834.614 1.244.521.468 1.332 1.107 2.557 1.14 1.772.046 3.17-.127 4.06-1.6.273-.483 1.005-1.475 1.768-1.843.43-.205 1.407-.665 1.246-.919-.29-.374-.868-.308-1.283-.214-.315.065-.41.646-.937.689-1.247.16-2.458-.278-3.995-.228-1.106.031-1.978.29-3.161.384-1.14.091-1.536-.514-2.606-.646-.486-.063-.575.22-.207.686.345.358.947.697 1.423.69.97.002 1.788.205 2.749.14m4.625-13.703c.045.189.71.002 1.023-.12.24-.093.44-.197.744-.261a4.1 4.1 0 01.717-.076c.47-.003.776.004 1.183.07.64.107 1.851.745 1.95.464.111-.523-.345-.944-.691-1.133-.858-.463-2.165-.704-3.333-.228-.391.187-.525.346-.895.598-.255.173-.726.454-.698.686m-1.411 8.89c-.678-.205-.836.526-1.527.524-.967 0-1.168-.623-1.682-.57-.42.047-.64.693-.927.737-.23-.047-.182.343.11.418.58.147.453-.342.837-.207.225.087.274.479.924.777.65.297 1.295-.056 1.877-.586.32-.31.884-.334.915-.479.015-.072-.1-.125-.147-.196-.11-.164-.218-.37-.38-.418M21.39 27.138c.275.145.861.43 1.325.294.055-.178-.097-.266-.197-.268-.291-.01-.498-.273-.492-.394.036-.4.446-1.046.929-1.302.44-.316.78-.146.91.1-.01.19-.077.337-.242.373-.253.055-.436-.163-.624-.082a.766.766 0 00-.088.98c.126.156.277.216.33.165.238-.304.81-.297 1.385-.249.245-.175.26-.595.327-.954.41-.469.616.474.89.848.176.244.37.537.615.562.415.043.957-.294.751-.91-.12-.158-.45.161-.58.056-.5-.476-.05-1.448-1.083-1.968-1.107-.557-2.823-.363-3.51.503-.267.337-.557.71-.774 1.279-.104.38-.203.77.129.967m14.401-2.968c-.45.148-1.153.79-1.4 1.163-.304.462-.497 1.292-.89 1.307-.152-.054-.006-.398-.236-.373-.295.066-.475.328-.397.634.056.155.19.27.401.296.703.093.81-.56 1.079-.934.224-.312.69-.791.939-.933.23-.133.568-.235.857-.008.168.147.001.464-.124.529-.322.026-.626-.093-.779-.06-.153.033-.381.449-.414.965.338.138.418-.12.75-.125.537-.008 1.064.345 1.338.074.275-.275.268-.775.267-.99.455.018.662.666.47 1-.152.177-.52.142-.518.47 1.556.315 1.703-.336 1.823-.691.084-.285.052-.518-.08-.907-.455-1.162-1.84-1.825-3.086-1.417m-9.848-2.518c-.32-.201-.583-.398-.932-.54a3.674 3.674 0 00-1.1-.187c-.958.367-1.833.655-2.565.91-.245.288-.359.635-.27.887.1.281 1.29-.423 1.921-.585.473-.122.709-.119 1.177-.145.205-.011.509.008.72.032.339.04.494.146.76.214.322.086.96.247 1.027.056.032-.226-.478-.48-.738-.642m20.876 19.05c-1.089-.07-1.053-.175-1.417-.418-.119-.078-.59.159-.253.463.117.102.37.405.273.77-.13.476-.821 1.383-.144 1.292.771-.098.951-1.194 1.037-1.357.086-.164.218-.23.386-.252.325-.039.672-.464.118-.498m2.217-4.581c-.217.474-.378 1.116-1.007.778-.791-.423.197-1.058.802-1.702.568-.6.373.552.205.924m-35.802 4.741c.96-.395.933-.41 1.286-.695.111-.09.393.06.133.498-.11.178-.28.094-.245.489.047.51 1.12 1.281.398 1.427-.657.133-1.032-1.09-1.083-1.264-.055-.173-.345.015-.488.002-.31-.032-.563-.223-.001-.457m-2.071-5.01c.09.69.632 1.473 1.077 1.04.283-.276-.259-.35-.639-1.947-.245-1.038-.51.374-.438.907m41.972 10.521h.302c.152 0 .263-.092.263-.242 0-.142-.11-.242-.263-.242h-.302v.484zm.798.571v.031h-.202l-.325-.441h-.27v.441h-.195v-1.254h.511c.248 0 .443.15.443.41 0 .188-.115.341-.294.376l.332.437zm.489-.598c0-1.481-2.13-1.481-2.13 0 0 1.477 2.13 1.477 2.13 0zm-2.36 0c0-1.746 2.585-1.746 2.585 0s-2.584 1.754-2.584 0z" fill="#3B302F"/></g></svg>